# xmcd
#
# Track frame offsets:
#   150
#   18519
#   36494
#   54913
#   72131
#   88717
#   103591
#   121681
#   135482
#   152500
#   171688
#   195065
#   211240
#   229363
#   251750
#   271915
#
# Disc length: 3885 seconds
#
# Revision: 0
# Processed by: cddbd v1.5.2PL0 Copyright (c) Steve Scherf et al.
# Submitted via: uFREEDB ActiveX Control 1.5
#
DISCID=d60f2b10
DTITLE=PAULA FERNANDES - PASSARO DE FOGO
DYEAR=2016
DGENRE=
TTITLE0=Passaro de Fogo
TTITLE1=Chuva Chover
TTITLE2=Meu eu em Voce
TTITLE3=Sem voce
TTITLE4=Complicados demais
TTITLE5=Espaço Sideral
TTITLE6=Apaixonados pela Lua
TTITLE7=Debaixo do Cacho
TTITLE8=Dança menina
TTITLE9=Sede de amor
TTITLE10=Quero Sim
TTITLE11=Vai
TTITLE12=Pra que inventaram o amor
TTITLE13=Jeito de mato
TTITLE14=Meu eu em voce2
TTITLE15=Qaundo a chuva passar
EXTD=
EXTT0=
EXTT1=
EXTT2=
EXTT3=
EXTT4=
EXTT5=
EXTT6=
EXTT7=
EXTT8=
EXTT9=
EXTT10=
EXTT11=
EXTT12=
EXTT13=
EXTT14=
EXTT15=
PLAYORDER=
